# xmcd
#
# Track frame offsets:
#	150
#	24830
#	44980
#	62527
#	81697
#	104047
#	126537
#	141130
#	160712
#	173110
#	180465
#	190352
#	206985
#	219695
#	231917
#	243257
#	253327
#
# Disc length: 3620 seconds
#
# Revision: 1
# Processed by: cddbd v1.5PL3 Copyright (c) Steve Scherf et al.
# Submitted via: CDex 1.50Beta5
#
DISCID=0b0e2211
DTITLE=トーネ・フラベクモ - 北欧の音楽〜白夜の調べ
DYEAR=2000
DGENRE=Other
TTITLE0=トーネ・フラベクモ/フローティング・アース
TTITLE1=アンビヨルク・リーエン/ヴァッキードゥー
TTITLE2=ベール・セームン・ビョルクム/繊細なバイオリン
TTITLE3=ブッケネ・ブルーセ/ヌーメダール地方の唄
TTITLE4=ブッケネ・ブルーセ/ルーンソング
TTITLE5=シャステン・ブローテン・ベルグ/ヘイエモと水の精
TTITLE6=ヘーゲ・リメスタ/クリシュナのいとこ
TTITLE7=オーロラ・ボレアリス/オールド・ソング
TTITLE8=アレ・ムーレル&グンナル・ストゥブセイド/セテスダール地方の数え歌
TTITLE9=エレン・インガ・サラ/マッテ・ミッカラ
TTITLE10=マッティス・M・ガープ/ユーハンそれともマリヤ
TTITLE11=オルビナ/ひとりぼっちのこども
TTITLE12=ジャズ・ヨイク・アンサンブル/アンナ・フェルネール
TTITLE13=オーノン・エーゲラン/それはあなた?それとも私?
TTITLE14=シニカ・ランゲラン/シースース・ダンス
TTITLE15=ハルグリム・ベルグ/ハンター
TTITLE16=ニルス・エークラン/旅の唄
EXTD=
EXTT0=
EXTT1=
EXTT2=
EXTT3=
EXTT4=
EXTT5=
EXTT6=
EXTT7=
EXTT8=
EXTT9=
EXTT10=
EXTT11=
EXTT12=
EXTT13=
EXTT14=
EXTT15=
EXTT16=
PLAYORDER=
